<svg width="17" height="14" viewBox="0 0 17 14" fill="none" xmlns="http://www.w3.org/2000/svg">
<path d="M9.77666 0.895528C9.65954 0.911037 9.54812 0.966745 9.46537 1.05111L0.532926 9.98323C0.453644 10.0624 0.400294 10.1671 0.382799 10.2778L0.00489416 12.6679C-0.0443624 12.998 0.286659 13.3261 0.616314 13.2737L3.00641 12.9012C3.11708 12.8839 3.22179 12.8304 3.30095 12.7511L12.2277 3.81898C12.4259 3.62133 12.4259 3.26066 12.2277 3.06301L10.2155 1.05082C10.0609 0.893127 9.93397 0.885929 9.77641 0.895236L9.77666 0.895528ZM9.84341 2.18513L11.0996 3.44135L2.66744 11.8732L1.17787 12.1067L1.41137 10.6171L9.84341 2.18513ZM5.51361 12.2124C5.21894 12.2124 4.97997 12.4512 4.97997 12.746C4.97997 13.0407 5.21893 13.2797 5.51361 13.2797H15.4742C15.7689 13.2797 16.0078 13.0407 16.0078 12.746C16.0078 12.4514 15.7689 12.2124 15.4742 12.2124H5.51361Z" fill="#231F20" fill-opacity="0.8"/>
</svg>
