<svg width="22" height="17" viewBox="0 0 22 17" fill="none" xmlns="http://www.w3.org/2000/svg">
<path d="M21.2506 6.37482C21.2506 4.03723 19.3381 2.12479 17.0005 2.12479H16.2921C15.5129 2.12479 14.8755 2.76233 14.8755 3.54142V12.75H2.12538C1.70042 12.75 1.41699 13.0332 1.41699 13.4583C1.41699 13.8833 1.70026 14.1667 2.12538 14.1667H2.90462C2.83377 14.3083 2.83377 14.3792 2.83377 14.5209C2.83377 15.8666 3.96712 17 5.3129 17C6.65869 17 7.79204 15.8666 7.79204 14.5209C7.79204 14.3791 7.79204 14.3083 7.72119 14.1667H13.4587C13.4587 14.3084 13.3879 14.3793 13.3879 14.5209C13.3879 15.8666 14.5212 17 15.867 17C17.2128 17 18.3462 15.8666 18.3462 14.5209C18.3462 14.3791 18.3462 14.3083 18.2753 14.1667L21.2506 14.1666L21.2506 6.37482ZM6.37542 14.5209C6.37542 15.0876 5.87961 15.5834 5.31291 15.5834C4.74621 15.5834 4.2504 15.0876 4.2504 14.5209C4.2504 14.3791 4.2504 14.3083 4.32126 14.1667H6.30458C6.37544 14.3083 6.37542 14.3792 6.37542 14.5209ZM17.0005 14.5209C17.0005 15.0876 16.5047 15.5834 15.938 15.5834C15.3713 15.5834 14.8755 15.0876 14.8755 14.5209C14.8755 14.3791 14.8755 14.3083 14.9464 14.1667H16.9297C17.0005 14.3083 17.0005 14.3792 17.0005 14.5209ZM19.8339 12.75H16.2921V3.54142H17.0005C18.5588 3.54142 19.8339 4.8165 19.8339 6.37482V12.75Z" fill="#EBECFF"/>
<path d="M2.12509 2.83326C2.55006 2.83326 2.83348 2.54999 2.83348 2.12487V1.41648H12.042C12.467 1.41648 12.7504 1.69974 12.7504 2.12487V10.6249H2.83341V9.91655C2.83341 9.49159 2.55014 9.20816 2.12502 9.20816C1.70005 9.20816 1.41663 9.49143 1.41663 9.91655V11.3332C1.41663 11.7581 1.69989 12.0416 2.12502 12.0416H13.4586C13.8835 12.0416 14.167 11.7583 14.167 11.3332L14.1668 2.12502C14.1668 0.920816 13.246 0 12.0418 0H2.12517C1.70021 0 1.41678 0.283265 1.41678 0.70839V2.12502C1.41678 2.54998 1.7002 2.83341 2.12517 2.83341L2.12509 2.83326Z" fill="#EBECFF"/>
<path d="M2.12538 5.66638H8.50044C8.92541 5.66638 9.20883 5.38312 9.20883 4.95799C9.20883 4.53303 8.92557 4.2496 8.50044 4.2496L2.12538 4.24975C1.70042 4.24975 1.41699 4.53302 1.41699 4.95814C1.41699 5.38311 1.70041 5.66638 2.12538 5.66638Z" fill="#EBECFF"/>
<path d="M7.79184 7.0833C7.79184 6.65833 7.50857 6.37491 7.08345 6.37491H0.70839C0.283424 6.37491 0 6.65817 0 7.0833C0 7.50826 0.283265 7.79169 0.70839 7.79169H7.08345C7.50841 7.79154 7.79169 7.50827 7.79169 7.0833H7.79184Z" fill="#EBECFF"/>
</svg>
