<svg width="33" height="28" viewBox="0 0 33 28" fill="none" xmlns="http://www.w3.org/2000/svg">
<g opacity="0.6">
<path d="M32.8564 10.7091C32.8564 7.12055 29.9205 4.18469 26.332 4.18469H25.2445C24.0483 4.18469 23.0698 5.16341 23.0698 6.35941V20.4958H3.49666C2.84427 20.4958 2.40918 20.9306 2.40918 21.5833C2.40918 22.2356 2.84403 22.6707 3.49666 22.6707H4.69289C4.58412 22.888 4.58412 22.9968 4.58412 23.2143C4.58412 25.2803 6.32398 27.0202 8.38993 27.0202C10.4559 27.0202 12.1957 25.2803 12.1957 23.2143C12.1957 22.9968 12.1957 22.888 12.087 22.6707H20.8949C20.8949 22.8883 20.7861 22.997 20.7861 23.2143C20.7861 25.2803 22.526 27.0202 24.5919 27.0202C26.6579 27.0202 28.3978 25.2803 28.3978 23.2143C28.3978 22.9968 28.3978 22.888 28.289 22.6707L32.8564 22.6705L32.8564 10.7091ZM10.021 23.2143C10.021 24.0843 9.2599 24.8454 8.38995 24.8454C7.51999 24.8454 6.75885 24.0843 6.75885 23.2143C6.75885 22.9968 6.75885 22.888 6.86762 22.6707H9.91229C10.0211 22.888 10.021 22.9968 10.021 23.2143ZM26.332 23.2143C26.332 24.0843 25.5709 24.8454 24.7009 24.8454C23.831 24.8454 23.0698 24.0843 23.0698 23.2143C23.0698 22.9968 23.0698 22.888 23.1786 22.6707H26.2233C26.332 22.888 26.332 22.9968 26.332 23.2143ZM30.6817 20.4958H25.2445V6.35941H26.332C28.7242 6.35941 30.6817 8.31684 30.6817 10.7091V20.4958Z" fill="#231F20"/>
<path d="M3.49677 5.27229C4.14915 5.27229 4.58425 4.83744 4.58425 4.18481V3.09734H18.7206C19.373 3.09734 19.8081 3.53219 19.8081 4.18481V17.2336H4.58413V16.1461C4.58413 15.4937 4.14928 15.0586 3.49666 15.0586C2.84427 15.0586 2.40918 15.4935 2.40918 16.1461V18.3208C2.40918 18.9732 2.84403 19.4083 3.49666 19.4083H20.8952C21.5476 19.4083 21.9827 18.9735 21.9827 18.3208L21.9825 4.18504C21.9825 2.33643 20.5689 0.922852 18.7203 0.922852H3.49689C2.84451 0.922852 2.40942 1.3577 2.40942 2.01033V4.18504C2.40942 4.83743 2.8445 5.27252 3.49689 5.27252L3.49677 5.27229Z" fill="#231F20"/>
<path d="M3.49666 9.62148H13.2832C13.9356 9.62148 14.3707 9.18663 14.3707 8.53401C14.3707 7.88163 13.9359 7.44653 13.2832 7.44653L3.49666 7.44676C2.84427 7.44676 2.40918 7.88161 2.40918 8.53424C2.40918 9.18662 2.84426 9.62148 3.49666 9.62148Z" fill="#231F20"/>
<path d="M12.1949 11.7967C12.1949 11.1443 11.7601 10.7092 11.1075 10.7092H1.32087C0.668493 10.7092 0.233398 11.1441 0.233398 11.7967C0.233398 12.4491 0.668249 12.8842 1.32087 12.8842H11.1075C11.7598 12.884 12.1947 12.4491 12.1947 11.7967H12.1949Z" fill="#231F20"/>
</g>
</svg>
