<svg width="22" height="13" viewBox="0 0 22 13" fill="none" xmlns="http://www.w3.org/2000/svg">
<path d="M8.342 12.782L6.41099 12.264L7.19799 9.32499C6.01996 8.89051 4.92511 8.25735 3.96099 7.45299L1.80799 9.60699L0.392995 8.19199L2.54699 6.03898C1.33107 4.58274 0.514083 2.83575 0.175995 0.968985L2.14399 0.609985C2.90299 4.81199 6.579 7.99999 11 7.99999C15.42 7.99999 19.097 4.81199 19.856 0.609985L21.824 0.967985C21.4864 2.835 20.6697 4.58235 19.454 6.03898L21.607 8.19199L20.192 9.60699L18.039 7.45299C17.0749 8.25735 15.98 8.89051 14.802 9.32499L15.589 12.265L13.658 12.782L12.87 9.84199C11.6323 10.0541 10.3676 10.0541 9.13 9.84199L8.342 12.782Z" fill="#151620"/>
</svg>
