<svg width="14" height="14" viewBox="0 0 14 14" fill="none" xmlns="http://www.w3.org/2000/svg">
<path d="M6.125 8.125L4.76562 6.76562C4.65104 6.65104 4.50771 6.59625 4.33562 6.60125C4.16354 6.60625 4.02042 6.66625 3.90625 6.78125C3.79167 6.89583 3.73438 7.04167 3.73438 7.21875C3.73438 7.39583 3.79167 7.54167 3.90625 7.65625L5.6875 9.4375C5.80208 9.55208 5.94792 9.60938 6.125 9.60938C6.30208 9.60938 6.44792 9.55208 6.5625 9.4375L10.1094 5.89062C10.224 5.77604 10.2788 5.63271 10.2738 5.46062C10.2688 5.28854 10.2088 5.14542 10.0938 5.03125C9.97917 4.91667 9.83333 4.85938 9.65625 4.85938C9.47917 4.85938 9.33333 4.91667 9.21875 5.03125L6.125 8.125ZM7 13.25C6.13542 13.25 5.32292 13.0858 4.5625 12.7575C3.80208 12.4292 3.14062 11.984 2.57813 11.4219C2.01563 10.8594 1.57042 10.1979 1.2425 9.4375C0.914583 8.67708 0.750417 7.86458 0.75 7C0.75 6.13542 0.914167 5.32292 1.2425 4.5625C1.57083 3.80208 2.01604 3.14062 2.57813 2.57813C3.14062 2.01563 3.80208 1.57042 4.5625 1.2425C5.32292 0.914583 6.13542 0.750417 7 0.75C7.86458 0.75 8.67708 0.914167 9.4375 1.2425C10.1979 1.57083 10.8594 2.01604 11.4219 2.57813C11.9844 3.14062 12.4298 3.80208 12.7581 4.5625C13.0865 5.32292 13.2504 6.13542 13.25 7C13.25 7.86458 13.0858 8.67708 12.7575 9.4375C12.4292 10.1979 11.984 10.8594 11.4219 11.4219C10.8594 11.9844 10.1979 12.4298 9.4375 12.7581C8.67708 13.0865 7.86458 13.2504 7 13.25ZM7 12C8.38542 12 9.56521 11.5131 10.5394 10.5394C11.5135 9.56563 12.0004 8.38583 12 7C12 5.61458 11.5131 4.43479 10.5394 3.46062C9.56563 2.48646 8.38583 1.99958 7 2C5.61458 2 4.43479 2.48687 3.46062 3.46062C2.48646 4.43437 1.99958 5.61417 2 7C2 8.38542 2.48687 9.56521 3.46062 10.5394C4.43437 11.5135 5.61417 12.0004 7 12Z" fill="#27C26C"/>
</svg>
