<svg width="21" height="21" viewBox="0 0 21 21" fill="none" xmlns="http://www.w3.org/2000/svg">
<path fill-rule="evenodd" clip-rule="evenodd" d="M10.5 1C5.25958 1 1 5.25765 1 10.5C1 15.7404 5.25958 20 10.5 20C15.7423 20 20 15.7404 20 10.5C20 5.25765 15.7423 1 10.5 1ZM10.5 1.86356C15.2758 1.86356 19.1364 5.72409 19.1364 10.4999C19.1364 15.2734 15.2758 19.1363 10.5 19.1363C5.72648 19.1363 1.86364 15.2734 1.86364 10.4999C1.86364 5.72409 5.72648 1.86356 10.5 1.86356Z" fill="#32213B" fill-opacity="0.6"/>
<path d="M10.5 0.830357C5.16591 0.830357 0.830357 5.16394 0.830357 10.5C0.830357 15.8341 5.16589 20.1696 10.5 20.1696C15.8361 20.1696 20.1696 15.8341 20.1696 10.5C20.1696 5.16396 15.836 0.830357 10.5 0.830357ZM10.5 2.0332C15.1821 2.0332 18.9667 5.81778 18.9667 10.4999C18.9667 15.1798 15.1821 18.9666 10.5 18.9666C5.82017 18.9666 2.03328 15.1798 2.03328 10.4999C2.03328 5.81781 5.82014 2.0332 10.5 2.0332Z" stroke="#32213B" stroke-opacity="0.6" stroke-width="0.339286"/>
<path fill-rule="evenodd" clip-rule="evenodd" d="M7.21094 6.82771C7.04286 6.84412 6.89979 6.95693 6.84467 7.11657C6.7894 7.27621 6.83247 7.45333 6.95461 7.5699L9.88284 10.5049L6.95461 13.4331C6.78503 13.6027 6.78503 13.8776 6.95461 14.0472C7.12419 14.2168 7.39904 14.2168 7.56864 14.0472L10.5037 11.1122L13.4319 14.0472C13.6015 14.2168 13.8763 14.2168 14.0458 14.0472C14.2153 13.8776 14.2153 13.6027 14.0459 13.4331L11.1109 10.5049L14.0459 7.5699C14.1747 7.4455 14.2134 7.25438 14.1431 7.08962C14.0726 6.92486 13.9078 6.82063 13.7287 6.82771C13.6168 6.83042 13.5105 6.87636 13.4319 6.95603L10.5037 9.88426L7.56865 6.95603C7.48672 6.87305 7.37467 6.82681 7.25825 6.82771C7.24244 6.82696 7.22677 6.82696 7.21096 6.82771L7.21094 6.82771Z" fill="#32213B" fill-opacity="0.6"/>
<path d="M7.26168 6.65806C7.42195 6.65808 7.57589 6.72217 7.68888 6.83635L10.5035 9.64449L13.3111 6.83688C13.3113 6.83673 13.3114 6.83659 13.3116 6.83645C13.4207 6.72602 13.5682 6.66224 13.7233 6.65815C13.9723 6.64885 14.2011 6.79392 14.299 7.0229L14.2991 7.02301C14.3968 7.25201 14.3434 7.51752 14.1649 7.69082L11.3509 10.5048L14.1657 13.313L14.1659 13.3132C14.4015 13.5491 14.4015 13.9313 14.1658 14.1671L7.26168 6.65806ZM7.26168 6.65806C7.25695 6.65787 7.25224 6.65772 7.24752 6.65763L7.2405 6.65437L7.19445 6.65887C6.96043 6.68172 6.76117 6.83878 6.68436 7.06107L7.26168 6.65806ZM9.64307 10.5048L6.83466 13.3132C6.59882 13.549 6.59883 13.9313 6.83465 14.1671L6.83466 14.1671C7.07049 14.403 7.45274 14.403 7.68859 14.1671L7.6886 14.1671L10.5035 11.3522L13.3118 14.167L13.3119 14.1671C13.5477 14.4029 13.93 14.403 14.1657 14.1671L9.64307 10.5048Z" stroke="#32213B" stroke-opacity="0.6" stroke-width="0.339286"/>
</svg>
