<svg width="23" height="16" viewBox="0 0 23 16" fill="none" xmlns="http://www.w3.org/2000/svg">
<path fill-rule="evenodd" clip-rule="evenodd" d="M19.5233 13.3724H21.1279C21.6244 13.3724 22.1004 13.1756 22.4512 12.8237C22.8032 12.4728 23 11.9968 23 11.5004V8.0974C23 6.92058 22.2981 5.85623 21.2166 5.39293L18.9294 4.41294C18.9027 4.40112 18.878 4.38518 18.8567 4.36691C18.2779 3.85236 15.9115 1.74909 14.7809 0.743513C14.2417 0.264266 13.5464 9.15527e-05 12.8265 9.15527e-05H1.87206C0.838694 9.15527e-05 0 0.83773 0 1.87215V11.5002C0 12.5346 0.838694 13.3722 1.87206 13.3722H3.74411C4.18701 13.3722 4.54645 13.0128 4.54645 12.5699C4.54645 12.127 4.18701 11.7676 3.74411 11.7676H1.87206C1.72448 11.7676 1.60467 11.6478 1.60467 11.5002V1.87215C1.60467 1.72457 1.72449 1.60476 1.87206 1.60476H12.8265C13.1539 1.60476 13.4694 1.72458 13.7144 1.94289C14.8463 2.94852 17.2126 5.05178 17.7902 5.56629C17.941 5.70007 18.1122 5.80806 18.2972 5.88722L20.5844 6.86828C21.0766 7.07907 21.3954 7.56264 21.3954 8.09741V11.5004C21.3954 11.5709 21.3676 11.6395 21.3173 11.6897C21.267 11.74 21.1986 11.7678 21.128 11.7678H19.5233C19.0804 11.7678 18.721 12.1272 18.721 12.5701C18.721 13.013 19.0804 13.3724 19.5233 13.3724L19.5233 13.3724Z" fill="#EBECFF"/>
<path fill-rule="evenodd" clip-rule="evenodd" d="M8.02328 13.3724H15.2443C15.6872 13.3724 16.0466 13.013 16.0466 12.5701C16.0466 12.1272 15.6872 11.7678 15.2443 11.7678H8.02328C7.58038 11.7678 7.22095 12.1272 7.22095 12.5701C7.22095 13.013 7.58038 13.3724 8.02328 13.3724Z" fill="#EBECFF"/>
<path fill-rule="evenodd" clip-rule="evenodd" d="M17.3832 9.62805C15.7592 9.62805 14.4413 10.946 14.4413 12.57C14.4413 14.194 15.7592 15.512 17.3832 15.512C19.0073 15.512 20.3252 14.194 20.3252 12.57C20.3252 10.946 19.0073 9.62805 17.3832 9.62805ZM17.3832 11.2327C18.1215 11.2327 18.7205 11.8318 18.7205 12.57C18.7205 13.3083 18.1215 13.9073 17.3832 13.9073C16.645 13.9073 16.046 13.3083 16.046 12.57C16.046 11.8318 16.645 11.2327 17.3832 11.2327Z" fill="#EBECFF"/>
<path fill-rule="evenodd" clip-rule="evenodd" d="M5.88325 9.62805C4.25922 9.62805 2.94128 10.946 2.94128 12.57C2.94128 14.194 4.25922 15.512 5.88325 15.512C7.50727 15.512 8.82521 14.194 8.82521 12.57C8.82521 10.946 7.50727 9.62805 5.88325 9.62805ZM5.88325 11.2327C6.62149 11.2327 7.22053 11.8318 7.22053 12.57C7.22053 13.3083 6.62149 13.9073 5.88325 13.9073C5.145 13.9073 4.54596 13.3083 4.54596 12.57C4.54596 11.8318 5.145 11.2327 5.88325 11.2327Z" fill="#EBECFF"/>
<path fill-rule="evenodd" clip-rule="evenodd" d="M9.62769 0.802336V4.54663C9.62769 5.58105 10.4664 6.41869 11.4997 6.41869H19.5231C19.966 6.41869 20.3254 6.05925 20.3254 5.61635C20.3254 5.17346 19.966 4.81402 19.5231 4.81402H11.4997C11.3522 4.81402 11.2324 4.6942 11.2324 4.54663V0.802336C11.2324 0.359438 10.8729 0 10.43 0C9.98712 0 9.62769 0.359438 9.62769 0.802336Z" fill="#EBECFF"/>
<path fill-rule="evenodd" clip-rule="evenodd" d="M4.01181 5.34906H7.22116C7.66405 5.34906 8.02349 4.98962 8.02349 4.54672C8.02349 4.10382 7.66405 3.74438 7.22116 3.74438H4.01181C3.56891 3.74438 3.20947 4.10382 3.20947 4.54672C3.20947 4.98962 3.56891 5.34906 4.01181 5.34906Z" fill="#EBECFF"/>
<path fill-rule="evenodd" clip-rule="evenodd" d="M4.01181 8.55844H7.22116C7.66405 8.55844 8.02349 8.199 8.02349 7.7561C8.02349 7.3132 7.66405 6.95377 7.22116 6.95377H4.01181C3.56891 6.95377 3.20947 7.3132 3.20947 7.7561C3.20947 8.199 3.56891 8.55844 4.01181 8.55844Z" fill="#EBECFF"/>
<path fill-rule="evenodd" clip-rule="evenodd" d="M12.5693 9.09344H14.174C14.6169 9.09344 14.9763 8.734 14.9763 8.29111C14.9763 7.84821 14.6169 7.48877 14.174 7.48877H12.5693C12.1264 7.48877 11.767 7.84821 11.767 8.29111C11.767 8.734 12.1264 9.09344 12.5693 9.09344Z" fill="#EBECFF"/>
</svg>
