<svg width="20" height="20" viewBox="0 0 20 20" fill="none" xmlns="http://www.w3.org/2000/svg">
<path d="M19.3448 16.2983H17.242V3.89655C17.242 3.63354 17.0331 3.42472 16.7701 3.42472H4.36839V1.32184C4.36839 1.05883 4.15957 0.85 3.89655 0.85H1.32184C1.05883 0.85 0.85 1.05883 0.85 1.32184C0.85 1.58485 1.05883 1.79368 1.32184 1.79368H3.42472V16.7701C3.42472 17.0331 3.63354 17.242 3.89655 17.242H5.55743C5.42995 17.486 5.35575 17.7636 5.35575 18.0575C5.35575 19.0285 6.1439 19.8167 7.11495 19.8167C8.086 19.8167 8.87415 19.0285 8.87415 18.0575C8.87415 17.7636 8.79994 17.486 8.67246 17.242H11.9942C11.8667 17.486 11.7925 17.7636 11.7925 18.0575C11.7925 19.0285 12.5807 19.8167 13.5517 19.8167C14.5228 19.8167 15.3109 19.0285 15.3109 18.0575C15.3109 17.7636 15.2367 17.486 15.1093 17.242H19.3448C19.6079 17.242 19.8167 17.0331 19.8167 16.7701C19.8167 16.5071 19.6079 16.2983 19.3448 16.2983ZM16.2983 9.8615H10.8052V4.36839H16.2983V9.8615ZM4.36839 4.36839H9.8615V9.8615H4.36839V4.36839ZM4.36839 10.8052H9.8615V16.2983H4.36839V10.8052ZM7.93047 18.0575C7.93047 18.5088 7.56629 18.873 7.11495 18.873C6.66361 18.873 6.29943 18.5088 6.29943 18.0575C6.29943 17.6062 6.66361 17.242 7.11495 17.242C7.56629 17.242 7.93047 17.6062 7.93047 18.0575ZM10.8052 10.8052H16.2983V16.2983H10.8052V10.8052ZM14.3673 18.0575C14.3673 18.5088 14.0031 18.873 13.5517 18.873C13.1004 18.873 12.7362 18.5088 12.7362 18.0575C12.7362 17.6062 13.1004 17.242 13.5517 17.242C14.0031 17.242 14.3673 17.6062 14.3673 18.0575ZM12.5862 12.0539H14.5173C14.7803 12.0539 14.9891 11.8451 14.9891 11.5821C14.9891 11.3191 14.7803 11.1102 14.5173 11.1102H12.5862C12.3232 11.1102 12.1144 11.3191 12.1144 11.5821C12.1144 11.8451 12.3232 12.0539 12.5862 12.0539ZM6.14943 12.0539H8.08047C8.34348 12.0539 8.55231 11.8451 8.55231 11.5821C8.55231 11.3191 8.34348 11.1102 8.08047 11.1102H6.14943C5.88642 11.1102 5.67759 11.3191 5.67759 11.5821C5.67759 11.8451 5.88642 12.0539 6.14943 12.0539ZM12.5862 4.67345C12.3232 4.67345 12.1144 4.88228 12.1144 5.14529C12.1144 5.40831 12.3232 5.61713 12.5862 5.61713H14.5173C14.7803 5.61713 14.9891 5.40831 14.9891 5.14529C14.9891 4.88228 14.7803 4.67345 14.5173 4.67345H12.5862ZM8.08047 5.61713C8.34348 5.61713 8.55231 5.40831 8.55231 5.14529C8.55231 4.88228 8.34348 4.67345 8.08047 4.67345H6.14943C5.88642 4.67345 5.67759 4.88228 5.67759 5.14529C5.67759 5.40831 5.88642 5.61713 6.14943 5.61713H8.08047Z" fill="#EBECFF" stroke="#EBECFF" stroke-width="0.3"/>
</svg>
