<svg width="62" height="61" viewBox="0 0 62 61" fill="none" xmlns="http://www.w3.org/2000/svg">
<circle cx="31.3348" cy="30.4129" r="30.4129" fill="#231F20" fill-opacity="0.05"/>
<path d="M17.9929 37.1711C17.3871 37.1711 16.8965 36.6806 16.8965 36.0603V22.3505L26.7426 31.1758C27.5196 31.881 28.5123 32.2404 29.5194 32.2404C30.5122 32.2404 31.5049 31.8806 32.2673 31.1758L42.1243 22.3513V26.8144C43.2061 26.8434 44.2445 27.074 45.1968 27.4492V21.6794C45.1968 20.5541 44.7353 19.4868 43.8985 18.6645C43.1198 17.9289 42.0956 17.5105 41.0424 17.5105L17.9927 17.5108C16.9254 17.5108 15.9012 17.9292 15.108 18.6792C14.2857 19.487 13.8242 20.5543 13.8242 21.6793V36.0606C13.8242 38.3685 15.6993 40.229 17.9927 40.229H33.0231C32.5902 39.277 32.3306 38.2529 32.2298 37.171L17.9929 37.1711Z" fill="#231F20"/>
<path d="M41.7634 29.6849C38.0709 29.6849 35.085 32.6998 35.085 36.3633C35.085 40.0703 38.0709 43.0561 41.7634 43.0561C45.4558 43.0561 48.4417 40.0702 48.4417 36.3633C48.4417 32.6994 45.4558 29.6849 41.7634 29.6849ZM44.7347 36.1182L41.374 38.3684C41.1865 38.4837 40.9846 38.5414 40.7682 38.5414C40.4364 38.5414 40.1047 38.3826 39.8883 38.0799L38.7343 36.4354C38.4025 35.9449 38.5178 35.2814 39.0083 34.9352C39.4989 34.589 40.1768 34.7043 40.5085 35.1948L41.0567 35.9736L43.5375 34.3149C44.028 33.9832 44.706 34.1275 45.0377 34.6177C45.3691 35.1227 45.2393 35.7861 44.7346 36.1182H44.7347Z" fill="#9370DB"/>
<circle cx="2.76481" cy="45.1585" r="2.76481" fill="white"/>
<circle cx="49.7666" cy="6.45122" r="6.45122" fill="#9370DB"/>
</svg>
