<svg width="30" height="33" viewBox="0 0 30 33" fill="none" xmlns="http://www.w3.org/2000/svg">
<g opacity="0.6">
<path d="M6.36339 3.30526C6.26882 3.50634 6.25782 3.7369 6.33319 3.94615L8.85678 10.9363C9.01431 11.3717 9.49485 11.5968 9.9305 11.4396L17.7464 8.61726C18.1818 8.45973 18.407 7.97919 18.2497 7.54354L15.7261 0.553389C15.5686 0.118004 15.0878 -0.107155 14.6524 0.0501222L6.83646 2.87219C6.62766 2.94826 6.45749 3.10395 6.36339 3.30526ZM14.434 1.9125L16.3871 7.32533L10.1658 9.57716L8.19581 4.16433L14.434 1.9125ZM29.7128 23.1544C29.5579 22.7181 29.0787 22.4899 28.6424 22.6444L14.927 27.5169C14.3219 26.8486 13.4628 26.467 12.5613 26.4666H12.4775L6.41682 9.73161C6.33629 9.50947 6.16565 9.33157 5.94702 9.24168L1.12475 7.25178C0.702235 7.09869 0.234335 7.30585 0.0631918 7.72134C-0.107688 8.13706 0.0793433 8.61367 0.487341 8.80207L4.96386 10.6478L10.8666 26.9597C10.2012 27.3755 9.71123 28.0208 9.48975 28.7737C9.26827 29.5265 9.33081 30.3343 9.66531 31.044C9.9998 31.754 10.5831 32.3162 11.3045 32.6247C12.026 32.9333 12.8357 32.9663 13.5798 32.7174C14.3242 32.4688 14.9513 31.9557 15.3424 31.2755C15.7335 30.5953 15.8616 29.7952 15.7022 29.027L29.1989 24.2418C29.4131 24.1683 29.5884 24.0112 29.6853 23.8064C29.782 23.6018 29.7918 23.3665 29.7125 23.1545L29.7128 23.1544ZM12.5619 31.2082C12.1561 31.2082 11.7668 31.0472 11.4798 30.7602C11.1928 30.4732 11.0315 30.084 11.0315 29.678C11.0315 29.2721 11.1928 28.8831 11.4798 28.5961C11.7668 28.3091 12.156 28.1478 12.5619 28.1478C12.9676 28.1478 13.3569 28.3091 13.6439 28.5961C13.9309 28.8831 14.0921 29.2721 14.0921 29.678C14.0921 30.0839 13.9309 30.4732 13.6439 30.7602C13.3569 31.0472 12.9676 31.2082 12.5619 31.2082ZM16.1693 11.9929C16.0949 11.782 15.9392 11.6093 15.737 11.5136C15.5347 11.4176 15.3025 11.4068 15.0921 11.4829L10.8168 13.0299C10.3815 13.1877 10.1561 13.6682 10.3133 14.1039L14.0886 24.5606C14.2463 24.996 14.7269 25.2212 15.1625 25.0639L26.8202 20.8558C27.2556 20.6981 27.481 20.2175 27.3237 19.7819L23.5517 9.3251C23.394 8.88972 22.9134 8.66456 22.4778 8.82184L18.2665 10.3352C18.0568 10.4103 17.8854 10.5657 17.7904 10.767C17.6953 10.9686 17.6843 11.1996 17.7597 11.4091L18.6893 14.0636L17.0919 14.6308L16.1693 11.9929ZM20.5319 14.2848L19.6023 11.6339L22.2465 10.681L25.4646 19.5635L15.3973 23.2046L12.1792 14.3221L14.8639 13.349L15.7866 15.9867V15.9864C15.8608 16.2008 16.0186 16.3762 16.2241 16.4721C16.4296 16.5683 16.6653 16.577 16.8774 16.4965L20.052 15.352L20.0517 15.3523C20.4796 15.1905 20.6992 14.7158 20.5452 14.2851L20.5319 14.2848Z" fill="black"/>
</g>
</svg>
