<svg width="17" height="20" viewBox="0 0 17 20" fill="none" xmlns="http://www.w3.org/2000/svg">
<path d="M11.0371 11.0068L11.0371 11.0067C10.7874 10.7421 10.7874 10.3167 11.0371 10.0521L11.0371 10.0521L12.5372 8.46394C12.5372 8.46392 12.5372 8.46391 12.5372 8.4639C12.7916 8.1944 13.2079 8.19447 13.4624 8.4639L13.3533 8.5669L13.4624 8.4639L14.9623 10.0521C15.2122 10.3167 15.2122 10.7422 14.9623 11.0068C14.7079 11.2763 14.2916 11.2762 14.0371 11.0068L14.1462 10.9038L14.0371 11.0068L13.6498 10.5966V12.1177C13.6498 13.947 12.247 15.4442 10.4987 15.4442H4.64987V18.4707C4.64987 18.6849 4.57278 18.858 4.44641 18.9769C4.32216 19.0938 4.15922 19.15 3.99987 19.15C3.84051 19.15 3.67758 19.0938 3.55333 18.9769C3.42696 18.858 3.34987 18.6849 3.34987 18.4707V10.5966L2.96253 11.0067C2.70806 11.2761 2.29174 11.2762 2.03732 11.0067L11.0371 11.0068ZM11.0371 11.0068C11.2916 11.2762 11.708 11.2763 11.9624 11.0067L12.3498 10.5966V12.1177C12.3498 13.2127 11.5133 14.0854 10.4987 14.0854H4.64987V10.5965M11.0371 11.0068L4.64987 10.5965M4.64987 10.5965L5.0373 11.0066C5.03731 11.0067 5.03732 11.0067 5.03734 11.0067C5.29175 11.2762 5.70807 11.2761 5.96254 11.0067L5.96257 11.0066C6.21231 10.742 6.21231 10.3166 5.96257 10.052L5.96253 10.052L4.4625 8.46384C4.46249 8.46382 4.46248 8.46381 4.46247 8.4638C4.20806 8.19431 3.79173 8.19437 3.53726 8.46381L2.03732 10.052L2.14637 10.155L2.03732 10.052C1.78743 10.3166 1.78742 10.742 2.03729 11.0066L4.64987 10.5965ZM2.49982 0.85C1.5811 0.85 0.85 1.6365 0.85 2.58805V5.76493C0.85 6.7162 1.58083 7.50299 2.49982 7.50299H5.50019C6.41891 7.50299 7.15001 6.71649 7.15001 5.76493V2.58805C7.15001 1.63679 6.41918 0.85 5.50019 0.85H2.49982ZM2.14999 5.76493V2.58805C2.14999 2.37065 2.3148 2.20882 2.49982 2.20882H5.50019C5.68521 2.20882 5.85002 2.37065 5.85002 2.58805V5.76493C5.85002 5.98231 5.68511 6.14417 5.50019 6.14417H2.49982C2.31482 6.14417 2.14999 5.98223 2.14999 5.76493ZM11.4998 0.85C10.5811 0.85 9.84999 1.6365 9.84999 2.58805V5.76493C9.84999 6.7162 10.5808 7.50299 11.4998 7.50299H14.5002C15.4189 7.50299 16.15 6.71649 16.15 5.76493V2.58805C16.15 1.63679 15.4192 0.85 14.5002 0.85H11.4998ZM11.15 5.76493V2.58805C11.15 2.37067 11.3149 2.20882 11.4998 2.20882H14.5002C14.6852 2.20882 14.85 2.37065 14.85 2.58805V5.76493C14.85 5.98234 14.6852 6.14417 14.5002 6.14417H11.4998C11.3148 6.14417 11.15 5.98223 11.15 5.76493Z" fill="#EBECFF" stroke="#EBECFF" stroke-width="0.3"/>
</svg>
