<svg width="21" height="19" viewBox="0 0 21 19" fill="none" xmlns="http://www.w3.org/2000/svg">
<path opacity="0.8" fill-rule="evenodd" clip-rule="evenodd" d="M1.99158 0.000132149C0.872434 0.000132149 0 1.13966 0 2.46566V15.9844C0 17.3104 0.872472 18.4499 1.99158 18.4499H17.7996C18.9188 18.4499 19.7961 17.3104 19.7961 15.9844V13.0821C20.4856 12.8579 21 12.1081 21 11.2318V7.53415C21 6.65783 20.4855 5.90804 19.7961 5.68393V2.46553C19.7961 1.13935 18.9188 0 17.7996 0L1.99158 0.000132149ZM1.99158 1.45197H17.7996C18.2067 1.45197 18.5608 1.86516 18.5608 2.46566V5.61606H13.0757C11.3086 5.61606 9.86681 7.30756 9.86681 9.38317C9.86681 11.4588 11.3086 13.1503 13.0757 13.1503H18.5608V15.9845C18.5608 16.585 18.2067 16.9982 17.7996 16.9982L1.99158 16.9983C1.58452 16.9983 1.23513 16.5851 1.23513 15.9846V2.46588C1.23513 1.86537 1.58435 1.45218 1.99158 1.45218V1.45197ZM13.0754 7.06785H19.3679C19.5992 7.06785 19.7647 7.26428 19.7647 7.53424V11.2319C19.7647 11.5019 19.599 11.6983 19.3679 11.6983H13.0754C11.9705 11.6983 11.1018 10.6784 11.1018 9.38309C11.1018 8.08754 11.9705 7.06785 13.0754 7.06785ZM13.184 8.37371C12.7322 8.40091 12.366 8.84821 12.366 9.38467C12.366 9.93819 12.757 10.3942 13.2285 10.3942C13.7 10.3942 14.0875 9.93833 14.0875 9.38467C14.0875 8.83115 13.7002 8.37371 13.2285 8.37371C13.221 8.37371 13.2128 8.37354 13.2057 8.37371C13.1985 8.37388 13.1911 8.37319 13.184 8.37371Z" fill="#231F20"/>
</svg>
