<svg width="22" height="22" viewBox="0 0 22 22" fill="none" xmlns="http://www.w3.org/2000/svg">
<path d="M9.50331 12.3711L7.55331 10.4213C7.38895 10.257 7.18722 10.1748 6.94814 10.1748C6.70906 10.1748 6.49987 10.2645 6.32056 10.4437C6.15619 10.6081 6.074 10.8173 6.074 11.0713C6.074 11.3253 6.15619 11.5344 6.32056 11.6988L8.87573 14.2537C9.04009 14.418 9.24929 14.5002 9.50331 14.5002C9.75734 14.5002 9.96653 14.418 10.1309 14.2537L15.2188 9.1663C15.3832 9.00195 15.4654 8.80024 15.4654 8.56119C15.4654 8.32214 15.3757 8.11296 15.1964 7.93367C15.0321 7.76932 14.8229 7.68715 14.5688 7.68715C14.3148 7.68715 14.1056 7.76932 13.9412 7.93367L9.50331 12.3711ZM10.7585 19.722C9.51826 19.722 8.35274 19.4866 7.26193 19.0156C6.17113 18.5447 5.22228 17.9061 4.41538 17.0999C3.60849 16.2931 2.96984 15.3444 2.49945 14.2537C2.02906 13.163 1.79357 11.9976 1.79297 10.7575C1.79297 9.51741 2.02846 8.35202 2.49945 7.26133C2.97044 6.17065 3.60908 5.2219 4.41538 4.41509C5.22228 3.60829 6.17113 2.96971 7.26193 2.49937C8.35274 2.02903 9.51826 1.79357 10.7585 1.79297C11.9987 1.79297 13.1642 2.02844 14.255 2.49937C15.3458 2.97031 16.2947 3.60888 17.1016 4.41509C17.9085 5.2219 18.5474 6.17065 19.0184 7.26133C19.4894 8.35202 19.7246 9.51741 19.724 10.7575C19.724 11.9976 19.4885 13.163 19.0175 14.2537C18.5465 15.3444 17.9079 16.2931 17.1016 17.0999C16.2947 17.9067 15.3458 18.5456 14.255 19.0165C13.1642 19.4875 11.9987 19.7226 10.7585 19.722Z" fill="#9370DB"/>
</svg>
