<svg width="17" height="17" viewBox="0 0 17 17" fill="none" xmlns="http://www.w3.org/2000/svg">
<path fill-rule="evenodd" clip-rule="evenodd" d="M4.4938 12.049H12.4228C14.6124 12.049 16.3873 13.824 16.3873 16.0135C16.3873 16.4514 16.0323 16.8064 15.5944 16.8064C15.1878 16.8064 14.8527 16.5003 14.8069 16.106L14.7975 15.8737C14.7278 14.6713 13.765 13.7085 12.5626 13.6388L12.4228 13.6348H4.4938C3.18008 13.6348 2.1151 14.6998 2.1151 16.0135C2.1151 16.4514 1.76011 16.8064 1.3222 16.8064C0.884291 16.8064 0.529297 16.4514 0.529297 16.0135C0.529297 13.8816 2.21208 12.1427 4.32183 12.0527L4.4938 12.049H12.4228H4.4938ZM8.45772 0.948242C11.0852 0.948242 13.2151 3.07821 13.2151 5.70565C13.2151 8.33309 11.0852 10.4631 8.45772 10.4631C5.83028 10.4631 3.70031 8.33309 3.70031 5.70565C3.70031 3.07821 5.83028 0.948242 8.45772 0.948242ZM8.4589 2.53412C6.70727 2.53412 5.28729 3.95409 5.28729 5.70572C5.28729 7.45735 6.70727 8.87733 8.4589 8.87733C10.2105 8.87733 11.6305 7.45735 11.6305 5.70572C11.6305 3.95409 10.2105 2.53412 8.4589 2.53412Z" fill="white"/>
<path d="M14.8069 16.106L14.6182 16.1136L14.6185 16.1207L14.6193 16.1278L14.8069 16.106ZM14.7975 15.8737L14.9861 15.8661L14.9859 15.8628L14.7975 15.8737ZM12.5626 13.6388L12.5735 13.4503L12.568 13.4501L12.5626 13.6388ZM12.4228 13.6348L12.4283 13.446H12.4228V13.6348ZM4.32183 12.0527L4.31781 11.8639L4.31378 11.8641L4.32183 12.0527ZM4.4938 12.049V11.8602L4.48978 11.8603L4.4938 12.049ZM4.4938 12.2378H12.4228V11.8602H4.4938V12.2378ZM12.4228 12.2378C14.5081 12.2378 16.1985 13.9282 16.1985 16.0135H16.5761C16.5761 13.7197 14.7166 11.8602 12.4228 11.8602V12.2378ZM16.1985 16.0135C16.1985 16.3472 15.9281 16.6176 15.5944 16.6176V16.9952C16.1366 16.9952 16.5761 16.5557 16.5761 16.0135H16.1985ZM15.5944 16.6176C15.2847 16.6176 15.0293 16.3845 14.9944 16.0842L14.6193 16.1278C14.6761 16.6162 15.0908 16.9952 15.5944 16.9952V16.6176ZM14.9955 16.0984L14.9861 15.8661L14.6088 15.8814L14.6182 16.1136L14.9955 16.0984ZM14.9859 15.8628C14.9107 14.5647 13.8716 13.5256 12.5735 13.4504L12.5517 13.8273C13.6584 13.8914 14.5449 14.7779 14.609 15.8847L14.9859 15.8628ZM12.568 13.4501L12.4283 13.4461L12.4174 13.8235L12.5571 13.8276L12.568 13.4501ZM12.4228 13.446H4.4938V13.8236H12.4228V13.446ZM4.4938 13.446C3.07582 13.446 1.92631 14.5955 1.92631 16.0135H2.30389C2.30389 14.8041 3.28434 13.8236 4.4938 13.8236V13.446ZM1.92631 16.0135C1.92631 16.3472 1.65584 16.6176 1.3222 16.6176V16.9952C1.86437 16.9952 2.30389 16.5557 2.30389 16.0135H1.92631ZM1.3222 16.6176C0.988554 16.6176 0.718083 16.3472 0.718083 16.0135H0.340511C0.340511 16.5557 0.780027 16.9952 1.3222 16.9952V16.6176ZM0.718083 16.0135C0.718083 13.9832 2.32073 12.327 4.32988 12.2413L4.31378 11.8641C2.10342 11.9584 0.340511 13.78 0.340511 16.0135H0.718083ZM4.32585 12.2414L4.49782 12.2378L4.48978 11.8603L4.31781 11.8639L4.32585 12.2414ZM4.4938 12.2378H12.4228V11.8602H4.4938V12.2378ZM12.4228 11.8602H4.4938V12.2378H12.4228V11.8602ZM8.45772 1.13703C10.9809 1.13703 13.0263 3.18247 13.0263 5.70565H13.4039C13.4039 2.97394 11.1894 0.759456 8.45772 0.759456V1.13703ZM13.0263 5.70565C13.0263 8.22883 10.9809 10.2743 8.45772 10.2743V10.6518C11.1894 10.6518 13.4039 8.43736 13.4039 5.70565H13.0263ZM8.45772 10.2743C5.93454 10.2743 3.8891 8.22883 3.8891 5.70565H3.51153C3.51153 8.43736 5.72601 10.6518 8.45772 10.6518V10.2743ZM3.8891 5.70565C3.8891 3.18247 5.93454 1.13703 8.45772 1.13703V0.759456C5.72601 0.759456 3.51153 2.97394 3.51153 5.70565H3.8891ZM8.4589 2.34533C6.60301 2.34533 5.09851 3.84983 5.09851 5.70572H5.47608C5.47608 4.05836 6.81153 2.7229 8.4589 2.7229V2.34533ZM5.09851 5.70572C5.09851 7.56162 6.60301 9.06611 8.4589 9.06611V8.68854C6.81153 8.68854 5.47608 7.35309 5.47608 5.70572H5.09851ZM8.4589 9.06611C10.3148 9.06611 11.8193 7.56162 11.8193 5.70572H11.4417C11.4417 7.35309 10.1063 8.68854 8.4589 8.68854V9.06611ZM11.8193 5.70572C11.8193 3.84983 10.3148 2.34533 8.4589 2.34533V2.7229C10.1063 2.7229 11.4417 4.05836 11.4417 5.70572H11.8193Z" fill="white"/>
</svg>
