<svg width="25" height="25" viewBox="0 0 25 25" fill="none" xmlns="http://www.w3.org/2000/svg">
<circle cx="12.5" cy="12.5" r="12" stroke="white"/>
<path d="M9.00077 12.0312C9.00791 12.2354 9.09421 12.4299 9.24343 12.5779L13.4793 16.7438C13.6981 16.9587 14.0216 17.0471 14.3281 16.9757C14.6345 16.9043 14.8774 16.684 14.9652 16.3977C15.0529 16.1114 14.9722 15.8026 14.7534 15.5877L11.1075 12L14.7534 8.41227C14.9722 8.19735 15.0529 7.88862 14.9652 7.60233C14.8774 7.31605 14.6345 7.09579 14.3281 7.02429C14.0217 6.95292 13.6981 7.04137 13.4793 7.25618L9.24343 11.4221C9.07833 11.5857 8.9908 11.8057 9.00077 12.0314V12.0312Z" fill="white"/>
</svg>
