<svg width="16" height="16" viewBox="0 0 16 16" fill="none" xmlns="http://www.w3.org/2000/svg">
<path d="M8 0C3.58872 0 0 3.58872 0 8C0 12.4113 3.58872 16 8 16C12.4113 16 16 12.411 16 8C16 3.58903 12.411 0 8 0ZM8 14.9031C4.19356 14.9031 1.09686 11.8063 1.09686 7.99968C1.09686 4.19325 4.19369 1.09654 8 1.09654C11.8064 1.09654 14.9035 4.19337 14.9035 7.99968C14.9033 11.8064 11.8066 14.9031 8 14.9031Z" fill="#FFFCFC"/>
<path d="M8.15035 8.45476C9.51903 8.45476 10.6327 7.34108 10.6327 5.97237C10.6327 4.60306 9.51906 3.48926 8.15035 3.48926C6.78142 3.48926 5.66797 4.60331 5.66797 5.97237C5.66772 7.34105 6.78139 8.45476 8.15035 8.45476ZM8.15035 4.58571C8.9144 4.58571 9.53607 5.20759 9.53607 5.97202C9.53607 6.73608 8.91453 7.35774 8.15035 7.35774C7.3863 7.35774 6.76464 6.73598 6.76464 5.97202C6.76476 5.20784 7.3863 4.58571 8.15035 4.58571Z" fill="#FFFCFC"/>
<path d="M12.8881 10.5576C12.382 9.25308 11.4092 8.54528 9.99628 8.45425C9.86566 8.44594 9.73816 8.4838 9.6341 8.56128C9.19396 8.88805 8.68084 9.06089 8.15008 9.06089C7.6198 9.06089 7.10582 8.88794 6.66355 8.5608C6.55926 8.4837 6.42988 8.44583 6.30188 8.4544C4.88152 8.54664 3.9063 9.26177 3.40335 10.5803C3.29546 10.8633 3.43712 11.1801 3.7202 11.2882C3.78451 11.3127 3.85044 11.3243 3.91562 11.3243C4.13649 11.3243 4.3447 11.1899 4.428 10.9713C4.75639 10.1105 5.30317 9.6713 6.18791 9.56574C6.7795 9.95373 7.45354 10.1577 8.15005 10.1577C8.8472 10.1577 9.52073 9.95373 10.1108 9.56574C10.9905 9.67003 11.5356 10.1042 11.8654 10.9544C11.9749 11.2369 12.2923 11.3768 12.5751 11.2673C12.8575 11.1575 12.9976 10.8401 12.8881 10.5576L12.8881 10.5576Z" fill="#FFFCFC"/>
</svg>
