<svg width="17" height="19" viewBox="0 0 17 19" fill="none" xmlns="http://www.w3.org/2000/svg">
<path d="M16.8841 14.2342C15.8882 15.9585 14.3509 17.3062 12.5108 18.0682C10.6705 18.8302 8.63043 18.9638 6.70636 18.4485C4.78233 17.9332 3.08237 16.7977 1.86974 15.218C0.65731 13.6383 0 11.7028 0 9.71185C0 7.72094 0.65731 5.78528 1.86974 4.20572C3.08233 2.62604 4.78225 1.49053 6.70636 0.975205C8.63022 0.459884 10.6704 0.593495 12.5108 1.3555C14.3509 2.1175 15.8881 3.46516 16.8841 5.18948C16.9859 5.36583 17.0223 5.57245 16.9867 5.77308C16.951 5.97356 16.8458 6.15511 16.6894 6.2857C16.5332 6.4163 16.3357 6.48744 16.1319 6.48681C15.9809 6.48791 15.8325 6.44864 15.7017 6.37308C15.571 6.29753 15.4628 6.18854 15.3883 6.05715C14.6354 4.74135 13.4956 3.68898 12.1235 3.04319C10.7514 2.39744 9.21377 2.18953 7.71944 2.44776C6.22508 2.70612 4.84651 3.41779 3.7709 4.48659C2.69544 5.55539 1.975 6.92906 1.70772 8.42136C1.44043 9.9135 1.63908 11.4519 2.27669 12.8272C2.91445 14.2027 3.9601 15.3485 5.27189 16.1091C6.58372 16.8698 8.09797 17.2083 9.60885 17.0787C11.1198 16.949 12.5542 16.3577 13.7172 15.3846C14.3876 14.82 14.9533 14.1415 15.3883 13.3806C15.4913 13.1978 15.6584 13.0597 15.8574 12.9928C16.0563 12.9259 16.273 12.9352 16.4656 13.0188C16.6906 13.1153 16.8644 13.3024 16.944 13.534C17.0239 13.7654 17.002 14.0198 16.8841 14.2343L16.8841 14.2342Z" fill="#EBECFF" fill-opacity="0.8"/>
<path d="M16.9972 9.71217C16.9972 9.95129 16.9021 10.1806 16.7329 10.3497C16.5638 10.5188 16.3344 10.6138 16.0952 10.6138H6.51848L8.34782 12.4453V12.4455C8.55515 12.6031 8.68438 12.8425 8.70189 13.1023C8.71956 13.3621 8.6241 13.6168 8.43981 13.8009C8.25568 13.985 8.00086 14.0806 7.74098 14.0629C7.48109 14.0452 7.2416 13.9162 7.08395 13.7089L3.70801 10.351C3.53933 10.1811 3.44482 9.95146 3.44482 9.71219C3.44482 9.47293 3.53933 9.24327 3.70801 9.07339L7.08395 5.7041C7.25357 5.53469 7.48314 5.43926 7.72296 5.43848C8.00476 5.44005 8.26968 5.57239 8.44025 5.79653C8.61082 6.02067 8.66762 6.31137 8.59378 6.58328C8.55086 6.73896 8.46566 6.87966 8.3478 6.99022L6.51845 8.81061H16.0952C16.3347 8.8095 16.5647 8.90414 16.7342 9.07339C16.9024 9.24358 16.9969 9.47292 16.9972 9.71219L16.9972 9.71217Z" fill="#EBECFF" fill-opacity="0.8"/>
</svg>
