<svg xmlns="http://www.w3.org/2000/svg" viewBox="0 0 442.99 442.99"><defs><style>.cls-1{fill:#231F20;fill-rule:evenodd;}</style></defs><g id="Layer_2" data-name="Layer 2"><g id="Layer_1-2" data-name="Layer 1"><path class="cls-1" d="M70.59,86.85A201.54,201.54,0,0,0,19.16,221.49c0,266.05,404.66,266.05,404.66,0,0-186.64-230.89-271.6-353.23-134.64ZM221.49,426.2h0c-112.87,0-204.7-91.83-204.7-204.71,0-269.16,409.41-269.16,409.41,0,0,112.88-91.83,204.71-204.71,204.71Z"/><path class="cls-1" d="M221.49,7.41c-281.5,0-281.5,428.17,0,428.17,118.05,0,214.09-96,214.09-214.09S339.54,7.41,221.49,7.41Zm0,435.58h0C99.36,443,0,343.63,0,221.49S99.36,0,221.49,0,443,99.36,443,221.49,343.63,443,221.49,443Z"/><path class="cls-1" d="M96.85,208.79v8.28h14.63c2.64,0,4.63-.86,4.63-4.19,0-3.18-1.72-4.09-4.46-4.09Zm0-6.57h14.58c2.85,0,4.36-1.07,4.36-3.87,0-3.12-1.94-4-4.47-4H96.85v7.9Zm25.5,3.08h0c2.53,1.44,4.14,4.13,4.14,8.86,0,9.42-6.35,11.41-15.27,11.41H86.58V186.25h24.64c8.28,0,14.52,1.94,14.52,10.87,0,4.08-1.29,6.61-3.39,8.18Z"/><path class="cls-1" d="M149.36,225.57c-12.53,0-17.91-4.63-17.91-15.55V186.25h10.49V210c0,5.06,1.78,7,7.59,7h3.55c5.64,0,7.53-2,7.53-7V186.25h10.27V210c0,10.92-5.43,15.55-18,15.55Z"/><polygon class="cls-1" points="204.84 225.57 193.44 225.57 174.34 186.25 185.91 186.25 199.09 214.97 212.53 186.25 224.26 186.25 204.84 225.57 204.84 225.57"/><path class="cls-1" d="M233.79,205.94c0,8.76,1.45,11.73,10.54,11.73s10.55-3,10.55-11.73-1.45-11.73-10.55-11.73-10.54,3-10.54,11.73Zm-10.38,0h0c0-14.85,3.55-20.44,20.92-20.44s20.93,5.59,20.93,20.44-3.55,20.44-20.93,20.44-20.92-5.6-20.92-20.44Z"/><polygon class="cls-1" points="302.98 214.11 302.98 186.25 312.72 186.25 312.72 225.57 299.91 225.57 280.77 198.68 280.77 225.57 270.98 225.57 270.98 186.25 283.45 186.25 302.98 214.11 302.98 214.11"/><path class="cls-1" d="M330,209.76c-8.93,0-11.62-3.88-11.62-11.89,0-7.69,2.47-11.62,11.62-11.62h25.12v8.82h-23c-2.42,0-3.28,1-3.28,3.5s.86,3.44,3.28,3.44h12.69c8.93,0,11.57,3.71,11.57,11.67s-2.58,11.89-11.57,11.89H318.75V216.8h24c2.37,0,3.28-1,3.28-3.6s-1-3.44-3.28-3.44Z"/><polygon class="cls-1" points="136.03 272.63 160.34 272.63 160.34 281.13 125.48 281.13 125.48 241.81 136.03 241.81 136.03 272.63 136.03 272.63"/><path class="cls-1" d="M172.89,261.49c0,8.77,1.45,11.74,10.54,11.74s10.55-3,10.55-11.74-1.46-11.72-10.55-11.72-10.54,3-10.54,11.72Zm-10.38,0h0c0-14.84,3.54-20.43,20.92-20.43s20.93,5.59,20.93,20.43-3.55,20.45-20.93,20.45-20.92-5.6-20.92-20.45Z"/><path class="cls-1" d="M244.23,281.13H225.88c-11.62,0-17.43-3.34-17.43-19.64s5.81-19.68,17.43-19.68h18.35v8.66H225.94c-5.27,0-7.1,2.1-7.1,11s1.88,11,7.1,11h18.29v8.66Z"/><path class="cls-1" d="M265.48,265.48H279l-6.78-14.31-6.73,14.31Zm.92-23.67h11.4l19.26,39.32H286.41l-3.61-7.64H261.72l-3.6,7.64h-11l19.26-39.32Z"/><polygon class="cls-1" points="311.76 272.63 336.07 272.63 336.07 281.13 301.22 281.13 301.22 241.81 311.76 241.81 311.76 272.63 311.76 272.63"/><path class="cls-1" d="M176.28,310.55H160.16v11.81h16.12c2.93,0,5.37-1.13,5.37-5.87s-2.44-5.94-5.37-5.94ZM160.16,332h0v14.12H147.91V300.49h28c9.24,0,17.8,2.75,17.8,16S185,332,175.9,332Z"/><path class="cls-1" d="M228.89,310.55H212.08v11.31h16.81c2.93,0,5.31-1.06,5.31-5.68s-2.38-5.63-5.31-5.63ZM212.08,331h0v15.12H199.84V300.49h28.61c9.18,0,17.49,2.19,17.49,14.25,0,5.18-1.56,8.62-4.24,10.8,2.8,1.44,4.55,3.88,4.55,8v12.62H234V334.92c0-2.94-.81-3.88-4.75-3.88Z"/><path class="cls-1" d="M264.2,323.35c0,10.19,1.68,13.63,12.24,13.63s12.25-3.44,12.25-13.63-1.69-13.61-12.25-13.61-12.24,3.44-12.24,13.61Zm-12.06,0h0c0-17.23,4.12-23.73,24.3-23.73s24.3,6.5,24.3,23.73-4.12,23.74-24.3,23.74-24.3-6.49-24.3-23.74Z"/><path class="cls-1" d="M225.47,118c.56-16.26,9.43-28.24,8.41-39.09-.75-8-8.51-19.45-12.21-23.15l-.35-.35-.36.35c-3.7,3.7-11.45,15.11-12.21,23.15-.85,9.09,7.75,24.37,8.9,39.09Zm-1,11.08h0l-6.27,0c.05,3.33,1.38,17.85-7.64,13.19-.09,5.71,4.36,9.46,8.43,6.22-.63,2.72.66,7.44,2.3,9.44,1.63-2,2.92-6.72,2.29-9.44,4.07,3.24,8.53-.51,8.44-6.22-7.51,3.88-7.63-7-7.55-13.21Zm8.23-10.17h0c0-.11-22.83,0-22.83,0a3.34,3.34,0,0,0-1.32.42c-2.52,1.67-2.48,8,1.23,8.74,0,.25,22.76.1,22.76,0,3.7-.77,4-7.07,1.48-8.74a3.34,3.34,0,0,0-1.32-.42Zm-15,10.19h0c-.57,5-4.65,9.44-7.16,10.87-2.35,1.34-6.27,1.54-8.6-.1a10,10,0,0,1-2.37-13.42c1,2.92,3.09,5.16,5.29,5.4a4.93,4.93,0,0,0,4.61-2.75ZM226,118h0c1.62-14.83,11.18-25.42,24.93-24.3,17,3.64,17.71,28.81,3.42,32.48-2.9.74-6,.2-7.64-3a5.3,5.3,0,0,1,.05-5.08c1.4-2.45,3.76-.8,3.4-4.58-2.63-9.8-15-2.31-16.8,4.51Zm-.69,11.1h8.23a4.93,4.93,0,0,0,4.61,2.75c2.2-.24,4.31-2.48,5.29-5.4A10,10,0,0,1,241,139.88c-2.32,1.64-6.24,1.44-8.59.1-2.51-1.43-6.59-5.89-7.16-10.87ZM217,118h-7.36c-1.81-6.82-14.17-14.31-16.8-4.51-.36,3.78,2,2.13,3.4,4.58a5.33,5.33,0,0,1,.05,5.08c-1.62,3.23-4.74,3.77-7.65,3-14.28-3.67-13.61-28.84,3.43-32.48,13.75-1.12,23.3,9.47,24.93,24.3Z"/></g></g></svg>