<svg width="21" height="18" viewBox="0 0 21 18" fill="none" xmlns="http://www.w3.org/2000/svg">
<path d="M20.25 0H0.75C0.551117 0 0.360266 0.07902 0.219643 0.219643C0.07902 0.360266 0 0.551117 0 0.75V5.25C0 5.44888 0.07902 5.63973 0.219643 5.78036C0.360266 5.92098 0.551117 6 0.75 6H1.5V17.25C1.5 17.4489 1.57902 17.6397 1.71964 17.7804C1.86027 17.921 2.05112 18 2.25 18H18.75C18.9489 18 19.1397 17.921 19.2804 17.7804C19.421 17.6397 19.5 17.4489 19.5 17.25V6H20.25C20.4489 6 20.6397 5.92098 20.7804 5.78036C20.921 5.63973 21 5.44888 21 5.25V0.75C21 0.551117 20.921 0.360266 20.7804 0.219643C20.6397 0.07902 20.4489 0 20.25 0ZM18 16.5H3V6H8.25V8.25C8.25 8.44888 8.32902 8.63973 8.46964 8.78036C8.61027 8.92098 8.80112 9 9 9H12C12.1989 9 12.3897 8.92098 12.5304 8.78036C12.671 8.63973 12.75 8.44888 12.75 8.25V6H18V16.5ZM9.75 6H11.25V7.5H9.75V6ZM19.5 4.5H1.5V1.5H19.5V4.5Z" fill="#EBECFF"/>
</svg>
