<svg width="15" height="15" viewBox="0 0 15 15" fill="none" xmlns="http://www.w3.org/2000/svg">
<path fill-rule="evenodd" clip-rule="evenodd" d="M4.37833 7.03528C4.10946 7.29877 4.10993 7.72413 4.3815 7.98776L6.70481 10.2431C7.34751 10.884 8.31188 9.92234 7.66918 9.2814L6.88379 8.50124C6.70496 8.32368 6.76568 8.17958 7.01616 8.17958H10.1424C10.5182 8.17958 10.8227 7.8744 10.8227 7.49978C10.8227 7.12422 10.5161 6.81983 10.1424 6.81983H7.01616C6.76425 6.81983 6.70496 6.67572 6.88379 6.49816L7.66918 5.71817C8.31188 5.07705 7.34751 4.11572 6.70481 4.75667L4.37833 7.03528Z" fill="#231F20"/>
<path d="M0 7.5C0 9.48913 0.790305 11.3968 2.19681 12.8032C3.60331 14.2096 5.51095 15 7.5 15C9.48905 15 11.3968 14.2097 12.8032 12.8032C14.2096 11.3967 15 9.48905 15 7.5C15 5.51095 14.2097 3.60323 12.8032 2.19681C11.3967 0.790386 9.48905 0 7.5 0C5.51095 0 3.60323 0.790305 2.19681 2.19681C0.790386 3.60331 0 5.51095 0 7.5ZM1.51892 7.5C1.51892 5.36314 2.65894 3.38878 4.50952 2.32018C6.3601 1.25167 8.64023 1.25167 10.4909 2.32018C12.3415 3.38853 13.4815 5.3631 13.4815 7.5C13.4815 9.6369 12.3415 11.6112 10.4909 12.6798C8.64031 13.7483 6.36018 13.7483 4.50952 12.6798C2.65894 11.6115 1.51892 9.6369 1.51892 7.5Z" fill="#231F20"/>
</svg>
