<svg width="18" height="18" viewBox="0 0 18 18" fill="none" xmlns="http://www.w3.org/2000/svg">
<path d="M16.0714 8.35714H14.0246C14.1007 8.15123 14.1407 7.93385 14.1429 7.71429V1.92857C14.1429 1.417 13.9397 0.926559 13.5781 0.564796C13.2163 0.203187 12.7259 0 12.2143 0H5.78572C5.27415 0 4.78371 0.203187 4.42195 0.564796C4.06034 0.926548 3.85715 1.417 3.85715 1.92857V7.71429C3.8593 7.93383 3.89934 8.15125 3.97539 8.35714H1.92857C1.417 8.35714 0.926559 8.56033 0.564796 8.92194C0.203187 9.28369 0 9.77415 0 10.2857V16.0714C0 16.583 0.203187 17.0734 0.564796 17.4352C0.926548 17.7968 1.417 18 1.92857 18H7.71429C8.19026 17.9983 8.6486 17.8196 9 17.4986C9.35142 17.8196 9.80974 17.9983 10.2857 18H16.0714C16.583 18 17.0734 17.7968 17.4352 17.4352C17.7968 17.0735 18 16.583 18 16.0714V10.2857C18 9.77415 17.7968 9.2837 17.4352 8.92194C17.0735 8.56033 16.583 8.35714 16.0714 8.35714ZM14.1429 10.9286H12.2143V9.64286H14.1429V10.9286ZM9.64287 1.28571V3.21429H8.35716V1.28571H9.64287ZM5.14287 7.71429V1.92857C5.14287 1.7581 5.2106 1.59451 5.33114 1.47398C5.45167 1.35345 5.61526 1.28571 5.78573 1.28571H7.07144V3.21429C7.07144 3.55523 7.2069 3.88227 7.44797 4.12347C7.68919 4.36454 8.01622 4.5 8.35716 4.5H9.64287C9.98381 4.5 10.3109 4.36454 10.5521 4.12347C10.7931 3.88225 10.9286 3.55522 10.9286 3.21429V1.28571H12.2143C12.3848 1.28571 12.5484 1.35345 12.6689 1.47398C12.7894 1.59451 12.8572 1.7581 12.8572 1.92857V7.71429C12.8572 7.88476 12.7894 8.04834 12.6689 8.16888C12.5484 8.28941 12.3848 8.35714 12.2143 8.35714H5.78573C5.61526 8.35714 5.45167 8.28941 5.33114 8.16888C5.2106 8.04834 5.14287 7.88476 5.14287 7.71429ZM5.78573 9.64286V10.9286H3.85716V9.64286H5.78573ZM7.7143 16.7143H1.92859C1.75812 16.7143 1.59453 16.6466 1.47399 16.526C1.35346 16.4055 1.28573 16.2419 1.28573 16.0714V10.2857C1.28573 10.1152 1.35346 9.95166 1.47399 9.83112C1.59453 9.71059 1.75812 9.64286 1.92859 9.64286H2.57144V10.9286C2.57144 11.2695 2.7069 11.5966 2.94797 11.8378C3.18919 12.0788 3.51622 12.2143 3.85716 12.2143H5.78573C6.12667 12.2143 6.45371 12.0788 6.69491 11.8378C6.93598 11.5965 7.07144 11.2695 7.07144 10.9286V9.64286H7.7143C7.88477 9.64286 8.04836 9.71059 8.16889 9.83112C8.28943 9.95166 8.35716 10.1152 8.35716 10.2857V16.0714C8.35716 16.2419 8.28943 16.4055 8.16889 16.526C8.04836 16.6466 7.88477 16.7143 7.7143 16.7143ZM16.7143 16.0714C16.7143 16.2419 16.6466 16.4055 16.526 16.526C16.4055 16.6466 16.2419 16.7143 16.0714 16.7143H10.2857C10.1153 16.7143 9.95167 16.6466 9.83114 16.526C9.7106 16.4055 9.64287 16.2419 9.64287 16.0714V10.2857C9.64287 10.1152 9.7106 9.95166 9.83114 9.83112C9.95167 9.71059 10.1153 9.64286 10.2857 9.64286H10.9286V10.9286C10.9286 11.2695 11.064 11.5966 11.3051 11.8378C11.5463 12.0788 11.8734 12.2143 12.2143 12.2143H14.1429C14.4838 12.2143 14.8109 12.0788 15.0521 11.8378C15.2931 11.5965 15.4286 11.2695 15.4286 10.9286V9.64286H16.0714C16.2419 9.64286 16.4055 9.71059 16.526 9.83112C16.6466 9.95166 16.7143 10.1152 16.7143 10.2857V16.0714Z" fill="#EBECFF"/>
</svg>
