<svg width="24" height="24" viewBox="0 0 24 24" fill="none" xmlns="http://www.w3.org/2000/svg">
<path d="M12 0.75C5.7941 0.75 0.75 5.79181 0.75 12C0.75 18.2059 5.79407 23.25 12 23.25C18.2082 23.25 23.25 18.2059 23.25 12C23.25 5.79184 18.2082 0.75 12 0.75ZM12 2.24991C17.3918 2.24991 21.75 6.60807 21.75 11.9999C21.75 17.3891 17.3918 21.7499 12 21.7499C6.61084 21.7499 2.25 17.3891 2.25 11.9999C2.25 6.60811 6.6108 2.24991 12 2.24991Z" fill="#231F20" stroke="#231F20" stroke-width="0.5"/>
<path d="M8.2507 7.49765C8.45011 7.49796 8.64157 7.5778 8.78222 7.71986C8.78246 7.7201 8.7827 7.72035 8.78295 7.72059L12.0033 10.9335L15.2161 7.72065C15.2163 7.72043 15.2165 7.72021 15.2168 7.72C15.3528 7.58243 15.5366 7.50296 15.7298 7.49779C16.0401 7.4863 16.3253 7.66719 16.4474 7.95259L16.4474 7.95277C16.5693 8.23818 16.5027 8.56908 16.2804 8.78518L13.0604 12.0053L16.2816 15.2191L16.2819 15.2194C16.5756 15.5134 16.5756 15.9898 16.2817 16.2837L8.2507 7.49765ZM8.2507 7.49765C8.24902 7.49758 8.24734 7.49752 8.24566 7.49747L8.23435 7.49222L8.16656 7.49884C7.8747 7.52734 7.62618 7.72326 7.53044 8.00053M8.2507 7.49765L16.2816 16.2838C15.9877 16.5779 15.5112 16.5777 15.2173 16.2838L15.2171 16.2836L12.0033 13.0624L8.78182 16.2838L8.7818 16.2838C8.4878 16.5778 8.01127 16.5778 7.71728 16.2838L7.71727 16.2838C7.4233 15.9898 7.42328 15.5133 7.71728 15.2193L7.89315 15.3952L7.71728 15.2193L10.9313 12.0053L7.71902 8.78556M7.53044 8.00053C7.53047 8.00047 7.53049 8.0004 7.53051 8.00033L7.76675 8.08213L7.53044 8.00053ZM7.53044 8.00053C7.43485 8.27688 7.50884 8.58316 7.71902 8.78556M7.71902 8.78556L7.71707 8.78361L7.89406 8.60704L7.72145 8.78789C7.72064 8.78711 7.71983 8.78634 7.71902 8.78556ZM8.19088 7.74766L8.19086 7.74765L8.19088 7.74766Z" fill="#231F20" stroke="#231F20" stroke-width="0.5"/>
</svg>
