<svg width="23" height="19" viewBox="0 0 23 19" fill="none" xmlns="http://www.w3.org/2000/svg">
<path d="M15.7346 8.26108C17.7567 8.26108 19.3856 6.51552 19.3856 4.38904C19.3856 2.26273 17.7567 0.516992 15.7346 0.516992C13.7126 0.516992 12.0829 2.26251 12.0829 4.38904C12.0829 6.51538 13.7127 8.26108 15.7346 8.26108ZM17.5856 4.38904C17.5856 5.48792 16.7463 6.36655 15.7346 6.36655C14.7222 6.36655 13.8829 5.48788 13.8829 4.38904C13.8829 3.29019 14.7222 2.41152 15.7346 2.41152C16.7463 2.41152 17.5856 3.29016 17.5856 4.38904Z" fill="#EBECFF" stroke="#EBECFF" stroke-width="0.3"/>
<path d="M15.2817 17.1043C15.2979 17.1007 15.3139 17.0961 15.3298 17.0914C15.3624 17.0819 15.395 17.0724 15.4305 17.0724H19.4654C19.7393 17.0724 19.9978 16.9573 20.1948 16.7482C20.3918 16.5383 20.5002 16.2604 20.5002 15.9641C20.5002 14.6089 20.0051 13.3368 19.1071 12.3821M15.2817 17.1043L13.2756 10.6827C13.4027 11.0613 13.7703 11.26 14.1316 11.1819C14.1456 11.1789 14.1597 11.1778 14.1737 11.1768C14.194 11.1753 14.2142 11.1738 14.2344 11.1663C14.6979 10.9906 15.2042 10.9016 15.738 10.9016C17.0125 10.9016 18.2092 11.4275 19.1071 12.3821M15.2817 17.1043C14.9412 17.1797 14.6805 17.4855 14.6805 17.8697C14.6805 18.31 15.016 18.667 15.4305 18.667H19.4654C20.1399 18.667 20.7757 18.3854 21.2555 17.8756C21.7358 17.3652 22.0002 16.6866 22.0002 15.9641C22.0002 14.183 21.3491 12.5108 20.1677 11.2543C19.0217 10.0361 17.5069 9.34868 15.8883 9.30856L15.2817 17.1043ZM19.1071 12.3821L18.9979 12.4848M19.1071 12.3821L18.9979 12.4849C18.9979 12.4848 18.9979 12.4848 18.9979 12.4848M18.9979 12.4848C18.1273 11.5594 16.9698 11.0516 15.738 11.0516C15.2209 11.0516 14.7328 11.1378 14.2875 11.3065L14.2871 11.3067C14.2494 11.3208 14.2149 11.324 14.1951 11.3256C14.1878 11.3262 14.1824 11.3266 14.1784 11.3269C14.1686 11.3276 14.1666 11.3278 14.1635 11.3285L14.1633 11.3285C13.7269 11.4229 13.2847 11.1811 13.1334 10.7305L13.1333 10.7302C12.9714 10.2454 13.2065 9.70231 13.6773 9.524L13.6773 9.52399C14.2743 9.29806 14.9135 9.17565 15.5795 9.15892L15.5793 9.1567H15.738C17.4557 9.1567 19.0681 9.86654 20.2769 11.1515L20.277 11.1516C21.4855 12.4368 22.1502 14.1462 22.1502 15.9641C22.1502 16.7235 21.8721 17.4392 21.3648 17.9784L21.2598 17.8796L21.3648 17.9784C20.8579 18.517 20.1831 18.817 19.4654 18.817H15.4305C14.9246 18.817 14.5305 18.384 14.5305 17.8697C14.5305 17.4148 14.8403 17.0484 15.2492 16.9578L15.2497 16.9577C15.2617 16.9551 15.2698 16.9527 15.2813 16.9493C15.2899 16.9468 15.3003 16.9437 15.3157 16.9395C15.3448 16.9316 15.3845 16.9224 15.4305 16.9224H19.4654C19.6956 16.9224 19.9152 16.8261 20.0856 16.6454C20.2556 16.4642 20.3502 16.2234 20.3502 15.9641C20.3502 14.6457 19.8688 13.4108 18.9979 12.4848Z" fill="#EBECFF" stroke="#EBECFF" stroke-width="0.3"/>
<path d="M7.2653 8.26108C9.28738 8.26108 10.917 6.51556 10.917 4.38904C10.917 2.2627 9.28738 0.516992 7.2653 0.516992C5.24337 0.516992 3.61428 2.26254 3.61428 4.38904C3.61428 6.51534 5.24323 8.26108 7.2653 8.26108ZM7.2653 2.41143C8.27771 2.41143 9.11702 3.2901 9.11702 4.38894C9.11702 5.48779 8.27771 6.36646 7.2653 6.36646C6.25362 6.36646 5.41427 5.48782 5.41427 4.38894C5.41427 3.29006 6.25362 2.41143 7.2653 2.41143Z" fill="#EBECFF" stroke="#EBECFF" stroke-width="0.3"/>
<path d="M3.4411 18.8122L3.44203 18.8141H3.53717H10.9938C12.4841 18.8141 13.6809 17.5282 13.6809 15.9672C13.6809 12.2205 10.8113 9.15658 7.26524 9.15658H7.26524C3.71907 9.15676 0.85 12.2205 0.85 15.9672C0.85 17.4946 1.99584 18.7584 3.4411 18.8122ZM7.26529 11.0515V11.0515C9.80171 11.0516 11.8809 13.2484 11.8809 15.9676C11.8809 16.5016 11.4745 16.92 10.9938 16.92L3.53713 16.9199C3.05641 16.9199 2.65003 16.5014 2.65003 15.9676C2.65003 13.2484 4.72939 11.0515 7.26529 11.0515Z" fill="#EBECFF" stroke="#EBECFF" stroke-width="0.3"/>
</svg>
